<svg width="94" height="58" viewBox="0 0 94 58" fill="none" xmlns="http://www.w3.org/2000/svg">
<line x1="2.5" y1="50.6389" x2="91.5517" y2="50.6389" stroke="#D9D9D9" stroke-width="2" stroke-linecap="round"/>
<rect x="11.1462" y="24.9265" width="5.51209" height="5.51209" rx="1" fill="#D9D9D9"/>
<rect x="11.1462" y="38.0176" width="5.51209" height="5.51209" rx="1" fill="#D9D9D9"/>
<path d="M13.9022 1.5L25.6154 17.6918H55.475C55.8448 17.6918 56.0867 17.3042 55.9241 16.972L48.3527 1.5H13.9022Z" fill="#D9D9D9"/>
<path d="M1.5 17.6918C1.5 17.6918 9.05884 7.82327 13.9022 1.5M13.9022 1.5C18.4765 7.82327 25.6154 17.6918 25.6154 17.6918M13.9022 1.5C27.356 1.5 48.3527 1.5 48.3527 1.5M13.9022 1.5L25.6154 17.6918M13.9022 1.5H48.3527M25.6154 17.6918H55.475C55.8448 17.6918 56.0867 17.3042 55.9241 16.972L48.3527 1.5" stroke="#D9D9D9" stroke-width="3" stroke-linecap="round"/>
<path d="M26.2591 31.2054C26.0396 32.1269 25.9299 33.0265 25.9299 33.9041C25.9299 34.7817 26.0396 35.6813 26.2591 36.6028C26.5004 37.5244 26.8624 38.3362 27.3451 39.0383C27.8498 39.7185 28.4861 40.2779 29.254 40.7168C30.0219 41.1336 30.9434 41.3421 32.0185 41.3421C33.0937 41.3421 34.0152 41.1336 34.7831 40.7168C35.551 40.2779 36.1873 39.7185 36.692 39.0383C37.1966 38.3362 37.5586 37.5244 37.778 36.6028C37.9974 35.6813 38.1072 34.7817 38.1072 33.9041C38.1072 33.0265 37.9974 32.1269 37.778 31.2054C37.5586 30.2839 37.1966 29.472 36.692 28.7699C36.1873 28.0678 35.551 27.5083 34.7831 27.0914C34.0152 26.6746 33.0937 26.4661 32.0185 26.4661C30.9434 26.4661 30.0219 26.6746 29.254 27.0914C28.4861 27.5083 27.8498 28.0678 27.3451 28.7699C26.8624 29.472 26.5004 30.2839 26.2591 31.2054ZM23.4945 33.9041C23.4945 32.6096 23.681 31.3809 24.054 30.218C24.427 29.0552 24.9755 28.0568 25.6996 27.2231C27.2354 25.4898 29.3418 24.6231 32.0185 24.6231C34.7173 24.6231 36.8236 25.4898 38.3375 27.2231C39.0396 28.0568 39.5772 29.0552 39.9502 30.218C40.3232 31.3809 40.5097 32.6096 40.5097 33.9041C40.5097 35.1986 40.3232 36.4273 39.9502 37.5902C39.5772 38.7531 39.0396 39.7514 38.3375 40.5851C36.8236 42.2965 34.7173 43.1522 32.0185 43.1522C29.3198 43.1522 27.2135 42.2965 25.6996 40.5851C24.9755 39.7514 24.427 38.7531 24.054 37.5902C23.681 36.4273 23.4945 35.1986 23.4945 33.9041ZM44.5461 25.8737C44.5461 25.3471 44.7765 25.0071 45.2372 24.8535C45.3908 24.8096 45.5773 24.7877 45.7967 24.7877C46.0161 24.7877 46.2355 24.8754 46.4549 25.0509C46.6963 25.2265 46.817 25.5007 46.817 25.8737V36.537C46.817 38.0729 47.3216 39.2796 48.3309 40.1573C49.1866 40.9252 50.2727 41.3092 51.5891 41.3092C52.9056 41.3092 54.0136 40.9252 54.9132 40.1573C55.9225 39.3016 56.4271 38.0948 56.4271 36.537V25.8737C56.4271 25.3471 56.6684 25.0071 57.1511 24.8535C57.2828 24.8096 57.4474 24.7877 57.6448 24.7877C57.8642 24.7877 58.0836 24.8754 58.303 25.0509C58.5444 25.2265 58.6651 25.5007 58.6651 25.8737V36.6028C58.6651 38.6653 57.941 40.3109 56.4929 41.5395C55.2423 42.6147 53.6077 43.1522 51.5891 43.1522C49.5925 43.1522 47.9579 42.6147 46.6853 41.5395C45.2592 40.3109 44.5461 38.6653 44.5461 36.6028V25.8737ZM65.2139 29.3623C65.2139 29.845 65.3565 30.2839 65.6418 30.6788C65.9489 31.0737 66.3439 31.4138 66.8266 31.699C67.3093 31.9623 67.8578 32.1927 68.4722 32.3902C69.0865 32.5877 69.7338 32.7961 70.4139 33.0155C71.116 33.2349 71.7852 33.4763 72.4215 33.7395C73.0797 34.0028 73.6612 34.332 74.1658 34.7269C75.2629 35.5826 75.8114 36.7564 75.8114 38.2484C75.8114 38.9505 75.6359 39.6197 75.2848 40.256C74.9557 40.8704 74.484 41.3969 73.8696 41.8358C72.6409 42.7134 71.0283 43.1522 69.0316 43.1522C66.9911 43.1522 65.2907 42.6695 63.9304 41.7041C63.0966 41.1556 62.6578 40.7716 62.6139 40.5522C62.592 40.4644 62.581 40.3767 62.581 40.2889C62.581 40.1792 62.603 40.0585 62.6468 39.9269C62.6907 39.7952 62.7456 39.6855 62.8114 39.5978C63.0089 39.3564 63.1844 39.2358 63.338 39.2358C63.5135 39.2358 63.6781 39.2906 63.8316 39.4003C63.9852 39.51 64.1608 39.6417 64.3582 39.7952C64.5776 39.9488 64.8409 40.1244 65.1481 40.3218C65.4772 40.5193 65.8392 40.6948 66.2342 40.8484C67.1118 41.1556 67.9565 41.3092 68.7684 41.3092C69.6021 41.3092 70.2823 41.2543 70.8089 41.1446C71.3574 41.013 71.8291 40.8155 72.2241 40.5522C73.0578 39.9817 73.4747 39.2577 73.4747 38.3801C73.4747 36.8661 72.3776 35.7691 70.1835 35.0889C69.5692 34.8914 68.9219 34.694 68.2418 34.4965C67.5835 34.2771 66.9253 34.0248 66.2671 33.7395C65.6089 33.4543 65.0274 33.1142 64.5228 32.7193C64.0181 32.3244 63.6122 31.8526 63.3051 31.3041C63.0198 30.7336 62.8772 30.0974 62.8772 29.3952C62.8772 28.6931 63.0527 28.0349 63.4038 27.4206C63.7549 26.8062 64.2156 26.3016 64.7861 25.9066C65.9709 25.0509 67.43 24.6231 69.1633 24.6231C71.6426 24.6231 73.6502 25.4349 75.1861 27.0585C75.2958 27.1682 75.3506 27.3109 75.3506 27.4864C75.3506 27.6619 75.3287 27.8045 75.2848 27.9142C75.2629 28.0239 75.219 28.1227 75.1532 28.2104C74.9996 28.4298 74.7911 28.5395 74.5279 28.5395C74.2646 28.5395 73.9793 28.386 73.6722 28.0788C72.992 27.5741 72.4215 27.2231 71.9608 27.0256C71.1489 26.6965 70.2823 26.532 69.3608 26.532C68.2637 26.532 67.3312 26.7623 66.5633 27.2231C65.6637 27.7277 65.2139 28.4408 65.2139 29.3623ZM80.8358 42.8889C80.375 42.8889 80.0349 42.6585 79.8155 42.1978C79.7497 42.0661 79.7168 41.9345 79.7168 41.8028V25.8737C79.7168 25.413 79.9252 25.0839 80.3421 24.8864C80.4738 24.8206 80.6164 24.7877 80.77 24.7877H90.2484C90.5556 24.7877 90.786 24.8864 90.9396 25.0839C91.0932 25.2594 91.17 25.4678 91.17 25.7092C91.17 25.9505 91.0932 26.1699 90.9396 26.3674C90.786 26.5429 90.5556 26.6307 90.2484 26.6307H81.9219V32.6535H89.8206C90.1497 32.6535 90.3911 32.7522 90.5446 32.9497C90.6982 33.1252 90.775 33.3336 90.775 33.575C90.775 33.7944 90.6873 34.0028 90.5117 34.2003C90.3581 34.3978 90.1278 34.4965 89.8206 34.4965H81.9219V41.0459H90.5776C90.8847 41.0459 91.1151 41.1446 91.2687 41.3421C91.4442 41.5176 91.532 41.726 91.532 41.9674C91.532 42.2087 91.4552 42.4282 91.3016 42.6256C91.148 42.8012 90.9067 42.8889 90.5776 42.8889H80.8358Z" fill="#D9D9D9"/>
</svg>
